<svg version="1.1" id="Layer_1" xmlns="http://www.w3.org/2000/svg" xmlns:xlink="http://www.w3.org/1999/xlink" x="0px" y="0px"
	 width="100%" viewBox="0 0 1024 544" enable-background="new 0 0 1024 544" xml:space="preserve">
<path fill="#000000" opacity="1.000000" stroke="none" 
	d="
M659.911499,335.822632 
	C644.960205,363.258026 623.538452,383.754944 595.469238,396.089355 
	C545.778564,417.924835 498.792450,412.834045 455.738434,378.685455 
	C453.943604,377.261871 452.666962,375.788269 452.678497,373.324646 
	C452.741669,359.828430 452.724121,346.331818 452.757050,332.835388 
	C452.758972,332.045746 452.683502,331.155365 453.673248,330.550262 
	C455.817047,330.716583 456.277435,332.762848 457.233795,334.161987 
	C479.145050,366.217590 509.613617,381.526642 548.184326,378.310059 
	C575.562988,376.026855 598.646729,363.531647 617.501160,343.332245 
	C630.894470,328.983490 640.015625,312.404053 644.083069,293.242706 
	C655.568604,239.134674 625.736389,179.934280 568.002380,164.939682 
	C561.417358,163.229446 554.678589,161.833054 547.781250,162.053482 
	C543.997986,162.174377 542.412720,160.705154 542.575378,156.735397 
	C542.841125,150.247757 542.858032,143.732971 542.585205,137.246231 
	C542.405212,132.966370 544.213684,131.806564 548.181580,131.832443 
	C568.842285,131.967163 589.504211,131.935272 610.165710,131.937027 
	C629.994080,131.938721 649.822449,131.888107 669.650818,131.908981 
	C675.791016,131.915436 676.120850,132.341812 676.086304,138.476273 
	C676.053406,144.307480 675.838135,150.149445 676.116516,155.966888 
	C676.339172,160.620331 674.399231,162.116394 669.952393,162.052063 
	C657.124817,161.866470 644.293274,161.944519 631.463318,161.948669 
	C630.506958,161.948975 629.550781,162.184738 628.742859,162.291443 
	C678.196777,213.090851 690.407471,270.430817 659.911499,335.822632 
z"/>
<path fill="#000000" opacity="1.000000" stroke="none" 
	d="
M440.342651,241.000092 
	C440.340149,301.654297 440.338715,361.808502 440.333466,421.962677 
	C440.332855,428.805359 440.325928,428.704407 433.487244,428.510773 
	C427.993500,428.355194 422.486664,428.335999 416.994751,428.523315 
	C410.680908,428.738617 410.663757,428.866333 410.663269,422.412415 
	C410.658264,352.260284 410.661163,282.108185 410.660309,211.956055 
	C410.660126,196.959167 410.566803,181.961472 410.710510,166.965988 
	C410.746582,163.197479 409.563507,161.160797 405.629730,161.481232 
	C390.973450,162.675110 376.328094,160.991867 361.670074,161.377411 
	C350.654327,161.667160 350.648651,161.478516 350.649994,150.155701 
	C350.650513,145.656631 350.794312,141.151932 350.612579,136.660339 
	C350.472931,133.210052 351.865906,131.815735 355.280884,131.912033 
	C359.942902,132.043488 364.611359,131.949127 369.277039,131.948959 
	C420.266449,131.947083 471.255829,131.941315 522.245239,131.945999 
	C530.242310,131.946732 530.248535,131.968353 530.252441,139.971237 
	C530.254944,145.136810 529.913147,150.327713 530.316040,155.460922 
	C530.728821,160.719543 528.434875,161.979156 523.646606,161.949158 
	C499.485931,161.797882 475.323792,161.886063 451.162170,161.888855 
	C437.955933,161.890366 440.446747,161.710083 440.382568,172.515015 
	C440.247955,195.175980 440.342255,217.838318 440.342651,241.000092 
z"/>
<path fill="#000000" opacity="1.000000" stroke="none" 
	d="
M567.312500,207.703293 
	C525.783447,191.136536 485.343628,219.111862 478.320496,260.385071 
	C472.903107,292.221863 492.844055,330.320984 531.221619,337.173126 
	C534.161133,337.697937 537.172485,337.864807 540.159241,338.071991 
	C548.771362,338.669403 553.458313,343.106110 553.294861,350.597046 
	C553.137207,357.819885 547.927368,362.367218 539.244690,362.084625 
	C505.504028,360.986542 480.735779,345.111938 464.687561,315.689270 
	C456.575104,300.816010 452.732391,284.585358 453.694214,267.697540 
	C456.125824,225.001770 482.154572,191.198410 521.767822,180.843948 
	C547.880127,174.018478 571.885925,179.471207 593.996948,194.414764 
	C599.287842,197.990585 599.219604,198.728348 594.365601,202.566132 
	C590.713867,205.453400 587.207581,208.529633 583.711243,211.606705 
	C581.253723,213.769592 579.011475,214.051987 576.135193,212.080124 
	C573.556824,210.312546 570.510681,209.227341 567.312500,207.703293 
z"/>
<path fill="#000000" opacity="1.000000" stroke="none" 
	d="
M550.315002,249.297394 
	C569.662292,233.095810 588.742920,217.130676 608.534058,200.571030 
	C608.723694,204.047897 607.125122,205.578842 605.905273,207.213669 
	C590.665955,227.637817 575.412903,248.051743 560.127930,268.441742 
	C558.708313,270.335510 557.663330,272.251556 557.161194,274.644348 
	C555.960999,280.363220 552.403503,284.716949 546.657837,285.374451 
	C538.685120,286.286865 532.319092,290.451538 525.486816,293.794861 
	C523.588135,294.723969 521.680542,295.634796 518.786316,295.756836 
	C520.619568,291.648621 522.377747,287.504852 524.305176,283.441254 
	C526.654968,278.487122 528.936890,273.711639 528.910034,267.871094 
	C528.885925,262.608551 532.445435,258.776398 537.475464,257.326172 
	C542.506592,255.875595 546.371582,252.955978 550.315002,249.297394 
z"/>
<path fill="#000000" opacity="1.000000" stroke="none" 
	d="
M625.424377,234.751907 
	C629.435364,245.573059 632.677063,256.148590 632.446106,267.506165 
	C632.383118,270.602936 631.422363,272.174225 628.140015,272.108643 
	C623.142883,272.008789 618.142090,272.059845 613.143127,272.091583 
	C610.130859,272.110687 608.691345,270.989960 608.615295,267.664520 
	C608.358459,256.442230 604.958435,246.059967 599.158447,236.523575 
	C597.055054,233.065109 596.817505,230.493164 599.753967,227.255890 
	C603.861023,222.728134 607.371765,217.659485 611.552368,212.289581 
	C618.359680,218.694489 621.602295,226.687927 625.424377,234.751907 
z"/>
</svg>